PathFileType	4	(X/Y/Z)	C:/Users/beibeiliu/ov580/test_trc\sequence.25_training_dense_left.trc
DataRate	CameraRate	NumFrames	NumMarkers	Units	OrigDataRate	OrigDataStartFrame	OrigNumFrames
120	120	24	19	mm	120	226	300
Frame#	Time	ThumbCMC			ThumbMCP			ThumbIP			ThumbTip			IndexMCP			IndexPIP			IndexTip			MiddleMCP			MiddlePIP			MiddleTip			RingMCP			RingPIP			RingTip			PinkyMCP			PinkyPIP			PinkyTip			BackHand1			BackHand2			BackHand3	
		X0	Y0	Z0	X1	Y1	Z1	X2	Y2	Z2	X3	Y3	Z3	X4	Y4	Z4	X5	Y5	Z5	X6	Y6	Z6	X7	Y7	Z7	X8	Y8	Z8	X9	Y9	Z9	X10	Y10	Z10	X11	Y11	Z11	X12	Y12	Z12	X13	Y13	Z13	X14	Y14	Z14	X15	Y15	Z15	X16	Y16	Z16	X17	Y17	Z17	X18	Y18	Z18	
225	1.875	-188.585	4.23542	16.5868	-186.151	9.91808	-15.2815	-199.333	19.1491	-30.2945	-221.585	30.544	-47.3795	-207.968	60.9383	-15.7489	-210.964	75.5305	-31.7336	-220.493	86.8164	-43.2429	-223.312	61.5068	-17.2768	-232.566	77.0594	-35.9464	-235.426	93.6974	-53.1645	-240.426	44.7339	-29.6412	-231.629	26.3652	-47.6214	-226.497	4.33165	-34.1277	-250	32.3302	-22.8895	-243.561	14.1626	-35.1538	-231.85	-0.943373	-14.9918	-236.652	33.2997	23.6473	-233.994	14.0584	44.3896	-208.496	27.1908	30.673	
226	1.88333	-188.032	1.32441	15.5435	-189.205	7.19373	-13.8844	-197.077	20.1422	-36.5775	-219.193	30.3273	-46.471	-199.578	56.159	-15.6816	-203.654	73.1904	-31.5959	-207.593	87.3516	-44.4111	-216.8	62.124	-20.8135	-221.134	78.8854	-39.8161	-223.264	95.3842	-56.1302	-231.437	45.2272	-30.475	-232.047	25.8103	-48.0042	-223.487	2.92196	-32.0435	-249.285	35.4116	-24.7098	-243.655	14.8977	-36.3167	-230.808	2.87452	-18.909	-235.671	35.7511	19.6754	-230.323	18.1324	42.0716	-207.924	25.0515	31.6042	
227	1.89167	-191.164	-1.97567	17.6875	-186.837	4.46316	-12.4533	-196.061	16.6898	-32.154	-214.193	28.2318	-44.9222	-193.06	53.405	-15.1742	-192.815	69.394	-30.0615	-195.872	87.2962	-47.3455	-207.916	61.6166	-21.9183	-208.617	78.6636	-40.4347	-210.143	95.6365	-55.9892	-230.052	46.7303	-32.5958	-225.867	25.1586	-49.6857	-223.331	1.75321	-32.1933	-243.176	37.1847	-21.5005	-241.485	19.759	-38.0424	-232.684	-0.144272	-21.1066	-226.844	38.692	19.7285	-231.039	19.0924	40.9222	-200.97	26.9757	30.4056	
228	1.9	-188.584	-3.20182	18.6794	-184.065	0.295808	-11.0777	-191.973	13.6068	-31.386	-206.799	27.3611	-49.8887	-188.816	54.5569	-17.1189	-186.86	68.1985	-30.8653	-184.334	86.6437	-48.1557	-202.178	61.9023	-22.6099	-201.618	76.5835	-40.5873	-201.662	92.1897	-56.004	-226.177	46.7993	-28.2817	-220.91	26.8211	-49.5201	-219.961	4.92856	-37.2095	-241.235	39.2718	-22.7851	-236.291	16.9449	-38.4228	-226.572	4.58037	-18.3264	-226.582	38.5564	19.8485	-227.309	21.597	41.6527	-199.66	24.1233	31.7682	
229	1.90833	-188.131	-3.08108	18.1925	-181.443	-1.90963	-11.6581	-188.262	12.2562	-31.5804	-204.199	28.6403	-49.1423	-178.479	51.1851	-15.5368	-177.848	66.1254	-31.815	-177.267	80.7836	-47.329	-194.828	58.6141	-20.4003	-191.115	76.2373	-41.3857	-193.142	90.5767	-55.7747	-218.677	48.809	-31.4761	-220.175	27.7229	-49.7134	-220.224	3.60819	-32.7215	-234.415	41.13	-27.3031	-232.776	23.7237	-39.5797	-227.224	2.69339	-19.7963	-220.657	37.3374	19.2773	-227.384	22.8569	41.5158	-199.334	27.2757	28.9261	
230	1.91667	-184.853	-5.03304	17.9984	-180.153	1.78311	-13.3888	-185.471	13.378	-32.8545	-200.478	28.5649	-47.6863	-175	49.4374	-14.3102	-173.385	66.3585	-32.8388	-172.318	82.0299	-48.539	-193.879	60.8754	-20.2564	-185.602	74.1679	-39.5019	-182.046	91.9746	-58.8242	-209.873	47.7748	-30.4843	-216.972	31.3875	-49.948	-213.739	6.23303	-36.0428	-231.259	43.9698	-24.1786	-227.161	21.6796	-38.2506	-223.932	5.89403	-17.2612	-215.893	41.5073	18.8141	-218.252	23.534	38.8476	-194.778	26.0779	30.699	
231	1.925	-182.888	-2.8949	16.1436	-174.968	-0.0908224	-16.3092	-182.765	14.3561	-34.0895	-196.17	26.8116	-49.8458	-169.058	50.0663	-16.7938	-167.512	64.007	-32.2588	-169.311	83.6521	-50.3276	-183.413	60.2549	-22.7536	-180.209	74.4155	-42.7746	-177.636	91.5028	-59.8612	-207.137	49.3312	-31.3753	-214.252	31.4216	-49.0817	-213.16	7.39417	-34.2374	-224.136	44.3394	-21.2823	-223.895	25.9894	-37.9338	-221.567	7.42771	-22.2268	-210.653	41.2283	20.0864	-216.35	25.2205	40.534	-190.561	25.1786	30.2419	
232	1.93333	-179.814	-3.56952	15.8013	-176.686	1.84331	-13.8535	-180.209	13.5846	-34.3385	-193.317	25.3943	-48.1365	-168.129	51.4939	-17.5583	-164.021	64.0275	-33.1494	-163.287	78.8305	-48.8513	-184.423	62.4487	-23.1331	-177.77	74.3234	-41.9345	-176.898	88.101	-57.7388	-208.155	50.7987	-33.0372	-207.802	31.0633	-49.033	-210.621	6.95658	-33.4086	-220.864	44.5406	-25.8209	-223.663	23.9647	-38.0193	-218.136	7.19654	-16.9935	-208.9	38.2237	21.2593	-215.553	24.3764	40.1661	-188.606	23.1376	32.6002	
233	1.94167	-180.018	-5.16927	18.188	-174.038	0.352153	-12.9939	-177.204	11.9283	-34.8552	-194.586	31.6186	-49.3467	-167.114	49.8385	-16.9099	-164.635	66.5274	-34.0021	-165.399	81.2898	-50.4776	-182.928	59.6368	-21.8016	-179.578	72.8802	-39.9383	-176.833	90.9593	-62.8113	-203.366	49.4007	-28.1765	-209.701	32.1267	-49.9881	-207.108	5.92777	-32.0606	-221.148	44.1619	-24.7418	-219.482	22.014	-37.4664	-218.084	8.36917	-19.16	-211.701	42.2319	19.6822	-214.828	25.3486	40.3689	-186.822	27.8568	28.5337	
234	1.95	-175.734	-1.63894	15.4486	-171.816	-0.486521	-14.0492	-175.609	15.2316	-35.5111	-191.94	28.4121	-46.1503	-165.698	52.9525	-19.2923	-164.227	67.7271	-37.4254	-161.653	80.4654	-53.8497	-180.732	62.8675	-25.5653	-176.858	75.1598	-45.5464	-175.233	88.7811	-63.385	-203.867	49.5428	-35.7996	-205.981	29.6729	-49.6592	-208.016	6.46335	-30.8456	-219.348	42.7311	-25.5362	-220.584	21.8363	-38.7717	-214.059	6.01768	-17.7459	-206.91	42.573	17.5281	-209.964	26.5355	39.4185	-185.06	27.7473	29.4968	
235	1.95833	-175.891	-3.46504	17.5027	-168.317	1.00362	-16.0807	-173.608	12.5389	-37.5059	-191.456	29.5354	-47.972	-167.373	53.2866	-21.3609	-163.282	64.2679	-37.4941	-160.116	79.901	-59.591	-182.13	63.8328	-29.6053	-173.984	73.7793	-49.1046	-174.185	87.8033	-66.8886	-204.797	47.9237	-37.4787	-205.424	24.6451	-50.0077	-207.333	5.75109	-31.6583	-221.994	42.9148	-29.7224	-218.655	19.3872	-38.1151	-213.205	7.34044	-19.4711	-207.943	42.3114	15.5566	-213.831	27.3868	38.348	-179.976	29.6245	26.7784	
236	1.96667	-171.569	-2.93224	14.3553	-166.198	-0.455136	-18.9995	-173.081	13.627	-40.7708	-190.35	27.8285	-52.9464	-162.381	53.4764	-27.6257	-163.359	64.125	-43.7071	-162.348	79.3446	-64.811	-179.928	59.4957	-29.6308	-176.45	73.2275	-54.0829	-173.212	84.4125	-71.2023	-202.047	46.2902	-36.8723	-207.529	19.8501	-50.4223	-206.543	4.83245	-27.8502	-222.218	42.1079	-31.0248	-216.699	16.0851	-38.5976	-209.063	8.17026	-15.6666	-203.228	42.7178	14.5065	-210.57	31.6805	35.6755	-181.58	30.6365	24.3384	
237	1.975	-173.672	4.03728	11.253	-166.685	3.97441	-21.409	-175.993	14.3539	-38.5925	-191.638	26.6579	-54.837	-162.601	53.6351	-31.5062	-160.385	61.2006	-47.1684	-162.821	73.7728	-66.9994	-177.179	60.5436	-35.5574	-173.614	69.6031	-56.5099	-174.925	83.0858	-78.062	-203.269	45.1235	-40.1193	-205.377	20.9036	-52.5005	-202.473	4.02659	-29.7802	-216.658	38.599	-33.9788	-218.275	17.4957	-40.2058	-210.21	9.1889	-13.0964	-205.478	44.7613	10.4074	-206.191	33.6803	32.735	-182.164	33.1137	23.5243	
238	1.98333	-169.483	1.37293	11.4457	-166.607	-0.260409	-20.236	-174.316	12.0643	-44.2562	-192.679	25.2327	-54.5778	-161.604	49.6814	-33.2701	-161.344	60.4315	-55.9755	-159.797	69.0907	-74.806	-178.934	58.994	-39.4816	-179.439	67.4364	-61.5576	-174.843	76.9234	-84.3372	-202.473	41.6065	-43.9563	-206.032	18.847	-52.5917	-204.351	2.76437	-28.6692	-221.088	37.5852	-35.6766	-216.859	13.9097	-37.4207	-211.069	8.52593	-13.9393	-201.385	44.0672	10.0736	-206.5	37.0854	31.2752	-179.253	29.8925	22.5611	
239	1.99167	-168.97	0.795682	11.6825	-168.53	0.455161	-20.7255	-176.7	10.362	-43.3357	-196.144	22.959	-57.7463	-165.661	47.7576	-37.1273	-161.268	54.2196	-58.2744	-163.602	64.2129	-80.3986	-180.271	56.3441	-42.5893	-181.599	62.5366	-64.9376	-178.816	70.8342	-89.9206	-205.54	40.7226	-43.3524	-208.173	13.3604	-50.9906	-208.064	1.48812	-28.9062	-218.787	38.3452	-32.1174	-218.536	10.6761	-35.6915	-210.586	6.83798	-15.4605	-202.29	46.9016	5.41459	-205.473	36.6307	33.4012	-177.63	33.8574	19.5614	
240	2	-169.072	3.27006	8.68426	-167.035	-3.21875	-20.5917	-176.353	7.0024	-44.574	-196.68	19.6486	-53.2163	-166.381	45.775	-40.537	-165.703	53.2669	-64.8064	-163.877	57.4245	-82.0549	-183.214	55.1647	-49.0805	-181.831	57.8688	-66.1601	-178.835	64.7822	-94.6787	-202.892	37.3799	-46.2803	-208.859	12.4566	-51.6811	-207.678	0.208867	-24.9114	-223.546	34.6061	-37.8354	-221.257	10.1474	-36.0219	-210.104	7.48884	-13.052	-202.574	48.4342	5.58708	-202.201	36.8817	28.7001	-175.63	35.2961	17.2951	
241	2.00833	-171.895	3.85316	13.0844	-167.363	-3.56093	-20.8469	-176.708	7.04037	-46.1539	-194.944	14.8025	-54.1999	-163.71	42.3213	-42.7489	-163.05	46.8951	-63.8928	-165.106	51.4902	-85.8832	-179.63	50.5967	-48.7524	-177.907	52.5171	-71.3142	-178.4	57.2471	-95.71	-204.287	35.1481	-48.4554	-211.482	5.78937	-50.6066	-205.019	-0.863448	-23.6631	-223.483	31.7232	-37.9327	-220.116	6.5793	-33.8611	-213.002	7.11279	-10.803	-201.885	48.7061	3.52277	-204.657	39.0845	27.9932	-178.41	37.5583	11.9638	
242	2.01667	-168.633	2.77134	11.849	-168.681	-1.84832	-19.3402	-175.693	2.16127	-44.0083	-195.896	12.7432	-59.255	-161.006	38.8147	-47.3957	-162.46	42.6568	-68.359	-163.341	45.9214	-90.4388	-179.482	46.9785	-52.7739	-174.824	46.6878	-75.6217	-177.335	50.7053	-96.8301	-206.836	32.6426	-49.4673	-206.451	3.30441	-49.9692	-206.801	-3.0024	-21.3279	-220.308	28.6244	-39.6195	-216.94	4.64655	-34.9333	-211.214	6.57802	-8.0448	-197.165	46.3287	0.340657	-201.677	38.894	27.0083	-174.059	36.8303	11.8086	
243	2.025	-168.395	4.38405	13.0672	-165.757	-6.14388	-18.0298	-176.055	0.89189	-40.9934	-193.244	8.25226	-56.5019	-162.232	37.0767	-47.1566	-162.763	38.7315	-67.8829	-159.869	40.5338	-91.8121	-176.57	42.9569	-54.2186	-176.178	43.7942	-76.0517	-177.204	45.1546	-100.656	-204.299	30.2691	-47.3927	-205.587	3.15718	-51.8046	-206.1	-3.95849	-20.1873	-218.814	24.6877	-39.8924	-218.549	2.19724	-32.6356	-209.637	5.70464	-9.14012	-195.638	46.6917	-4.64381	-197.92	42.0676	24.3463	-176.939	38.7859	12.2907	
244	2.03333	-168.115	5.66621	12.0068	-163.24	-8.8039	-15.9903	-173.659	-3.80118	-38.1208	-194.013	5.11888	-56.9981	-160.747	32.5806	-45.8083	-161.766	34.3035	-67.18	-157.088	33.1306	-91.2856	-175.564	39.9316	-55.23	-178.165	38.5595	-76.4387	-176.587	38.423	-101.198	-201.222	25.1506	-49.2231	-205.862	-3.51064	-46.4663	-207.001	-6.00683	-18.578	-218.714	24.1876	-38.344	-219.978	0.522794	-32.0975	-209.148	2.92753	-6.62163	-199.242	47.1306	-2.77036	-197.942	45.1134	21.4957	-171.526	35.2298	13.0577	
245	2.04167	-165.462	4.89011	16.1143	-162.758	-8.7125	-18.8316	-172.792	-7.80578	-37.9661	-191.974	-1.16263	-51.7445	-161.737	29.9214	-49.0273	-161.492	28.9837	-70.3852	-158.098	28.7803	-93.0727	-175.902	35.6542	-52.5981	-178.167	33.535	-76.4258	-178.501	33.0708	-102.084	-200.23	20.9165	-49.585	-207.844	-6.04969	-44.4135	-207.058	-8.42201	-18.8716	-220.646	22.2873	-36.9634	-216.836	-1.96523	-30.5046	-207.272	0.939569	-4.89168	-196.653	46.4191	-6.46654	-197.026	44.0957	21.7968	-170.63	36.7789	11.3495	
246	2.05	-162.23	3.67009	14.3722	-162.456	-9.24208	-17.2188	-172.53	-9.66911	-34.3707	-191.655	-4.58696	-50.1663	-161.296	26.8496	-50.8338	-160.144	25.4595	-72.5839	-162.783	23.8734	-93.9883	-175.633	32.6332	-54.9645	-175.892	28.1613	-80.1315	-173.846	25.7784	-101.128	-204.558	19.5984	-48.2748	-203.518	-10.3838	-42.5357	-204.554	-8.95768	-14.5184	-217.017	15.3046	-36.9445	-213.838	-6.16447	-24.8466	-206.449	-0.684889	-5.70974	-193.178	44.5079	-7.75577	-196.522	42.9902	23.3087	-170.382	36.8732	6.74697	
247	2.05833	-163.258	5.74997	15.0933	-163.284	-10.5037	-10.8535	-172.443	-10.1026	-36.128	-189.573	-8.06829	-48.7107	-156.457	23.7276	-48.8995	-158.459	21.3643	-70.2038	-157.789	18.5146	-92.1003	-175.021	28.7446	-55.5351	-173.877	23.8506	-77.1488	-174.462	20.3612	-104.645	-202.145	15.6308	-47.3573	-207.176	-13.04	-40.5318	-202.741	-10.8697	-11.9062	-218.169	13.6301	-35.4892	-212.49	-8.22874	-23.9861	-201.637	-2.01063	-2.28514	-197.076	44.1663	-7.98219	-195.83	44.3606	20.6661	-172.223	37.6982	11.1046	
248	2.06667	-160.122	4.22927	16.6294	-160.471	-12.3255	-9.42464	-169.922	-14.7891	-31.5015	-190.091	-10.5365	-48.5361	-159.06	21.5892	-45.9704	-157.202	17.6254	-69.5304	-159.809	15.0564	-91.9667	-176.793	27.2723	-54.5664	-170.741	20.1831	-78.6192	-171.204	17.0495	-100.103	-199.329	12.5674	-46.0915	-201.212	-15.3158	-40.3454	-198.455	-15.9983	-13.8009	-216.553	12.2293	-34.1523	-212.933	-9.7864	-22.0955	-203.065	-1.13982	2.64726	-193.507	41.2204	-8.03054	-193.254	44.9242	21.1626	-171.544	35.0399	10.5244	
